<svg id="Warstwa_1" data-name="Warstwa 1" xmlns="http://www.w3.org/2000/svg" viewBox="0 0 7849.03 4114.9"><defs><style>.cls-1{fill:#0270d9;}.cls-2{fill:#565656;}</style></defs><path class="cls-1" d="M821.93,3636.08" transform="translate(-104.86 -2038.55)"/><path class="cls-1" d="M982.85,3686.94" transform="translate(-104.86 -2038.55)"/><path class="cls-1" d="M3027.77,2042.59c18.34-9.6,33.57-1.65,36.46,19a297.57,297.57,0,0,1,2.49,45c-3.19,227.19,2.52,454.33.66,681.52-.25,29.92,0,30.21-30.13,30.33s-60.14-.78-90.23-.37c-13.9.21-19.37-2.4-19.57-19q-3-233.19-2.53-466.46c0-5.3,0-10.6-.16-15.89-.42-11.8-5.18-17.84-16.06-8.9C2904,2309.89,443.35,4076.05,440.08,4080.06c-9.06,11.09-5.71,19.83,8.32,21.9,5.22.78,10.6.41,15.89.41l650.19-.62c29.3,0,29.3.08,29.3,28.89.17,344.73-1.41,689.5,1,1034.23,2,271.39,0,542.74,1.24,814.08.21,39.32.17,39.08,39,39.32,122.93.79,245.85,3.56,368.78,2.28,461.74-4.8,923.43-1.08,1385.17-2.44,23.22-.08,45.74,2,67.67,10.3,37.29,14.16,51.62,58.74,27.82,91.23-16.43,22.43-38.49,33.85-67.67,33.81q-481.65-.68-963.34-.29v.09H1050.78c-7.08,0-14.16-.38-21.24-.05-15.27.75-23.63-5.17-22.43-21.6.46-6.17.09-12.38.09-18.54q-.13-919-.21-1837.93c0-4.43.08-8.86,0-13.25-.7-23-.7-23.3-24.5-23.34q-147.27-.18-294.57-.12-252.12,0-504.2,0c-13.08,0-28.89,4.34-38.37-5.67-14.4-15.19-31.46-28.81-40.44-48.47C99,4171.53,3017.09,2049.09,3027.77,2042.59Z" transform="translate(-104.86 -2038.55)"/><path class="cls-1" d="M2722.32,4197.15c0-30-.17-60.1.08-90.19.12-17,29.76-50.2,45.9-52,16.72-1.91,53.89,31.53,54,49.13.25,31.82-.29,63.65.21,95.48.41,27.11,5.3,29.43,29.43,16.22,48.88-26.69,98.09-52.77,146.55-80.13,12.17-6.87,21.57-7.57,34.23-1.15,48.26,24.38,46.4,24,49.22,77.4,1.69,32.61-7.7,51.53-38.45,65-37.09,16.22-71.86,37.87-107.28,57.69-22.19,12.42-22.31,19.58.28,31.87s45.61,23.39,69,33.82c13.87,6.17,21.4,14.77,19.7,30.38-.5,4.34,0,8.81,0,13.24,0,15.69,9.11,35-1.78,46.11-14.36,14.74-36.38,20.74-56,28.39-11.38,4.43-20.41-3.39-29.51-8.48-46.23-25.91-92.59-51.61-138.32-78.39-11.43-6.71-20.7-7.78-31.75-.91-29.22,18.17-58.65,36-88,53.89-11.39,6.91-13.25,12.54.37,19.86,27.23,14.65,54,30.13,80.71,45.78,17.84,10.47,17.75,13.24.16,24.33-25.41,16.06-51.07,31.67-76.36,47.89-19.87,12.75-19.58,19.54,1.53,31,27.15,14.78,54.84,28.56,82,43.46,13,7.16,24.38,6.83,37.25-.7,41.18-24.05,83.15-46.81,124.21-71.11,16.76-9.93,30.75-11.71,49-1.45,46.73,26.32,46.9,25.33,46.61,78.19-.09,13.08-3.69,20.86-16.11,26.86-23.83,11.5-46.93,24.67-69.86,37.91-18.63,10.8-19,18.26-.5,30.09,36.47,23.3,73,46.52,110.68,67.71,23,13,34.1,27.74,32.57,56.17-3.72,69.95,9.36,47.18-52.89,76.49-17.18,8.11-31.29,5.29-47.23-3.69-45.49-25.49-91.59-49.79-137.74-74.08-20.9-11-23.63-9.15-24.17,14.73-.54,24.75-1.49,49.58,0,74.25,1.65,27.86-14,44-34.35,58-6.21,4.3-12.67,6.49-19.75,2.27-14.36-8.61-29.09-16.68-42.79-26.2-8.07-5.58-6.83-15.72-6.91-24.54-.54-52.15-1.66-104.3-1.2-156.45.16-16.39-5.51-25.7-19.87-33.2-32.9-17.13-65-35.71-97.35-53.92-13.12-7.37-19.37-5-19.08,11.21.46,28.27,0,56.58,0,84.85,0,13.28-.08,21.85-18.21,12.33-27.36-14.28-55.29-27.65-82.61-42.17-23.88-12.67-27.61-10.6-27.57,15.1,0,31,1.12,61.88.79,92.8-.17,14.07,5,22.68,17.55,29.47,41.14,22.31,81.33,46.44,122.76,68.21,19.29,10.14,31.5,21.93,27.15,45.15-.62,3.44-.08,7.08-.08,10.6,0,38-8.44,49.25-44.45,59.68-10.27,3-18.75-.2-27.65-5.13-25.46-14.12-51.12-28-77-41.22-21.23-10.85-24.46-9-24.08,14.28.91,56.53,1.78,113.11,4.26,169.61.74,17.34-4.68,27.07-19.25,36.38-48.88,31.29-48,31.21-95.86-3.06-13.45-9.61-17.38-19.58-17.21-35.06.7-55.67.24-111.38,0-167.09,0-6.66,2.85-15.36-4.52-19.33-7.53-4-12.87,3.64-18.37,7.33q-35.21,23.65-69.83,48.22c-10.3,7.28-19.94,9.51-31.78,2.69-15.28-8.82-35.35-12.71-46.11-25-11.92-13.66,3.72-33.28,2-50.71-2.36-24.75,11.13-38.2,32.28-48.67,38-18.79,74.67-40.23,112.5-59.39,15.31-7.74,22.26-18.5,22.39-35.14.2-35.35,1.32-70.7,1.12-106-.09-18.46-4.18-20.53-20.16-10.06-33.24,21.77-63.49,47.76-97.68,68.21-4.18,2.48-7.12,10-12.83,6-4.31-3-3-9.73-3-15,0-32.7.2-65.44-.12-98.14-.25-24.33-2.16-25.86-23.47-15.77-32.7,15.53-64.69,32.58-97.39,48-12.91,6.08-14.65,15.77-14.57,28,.29,46.85-1.49,93.79.7,140.51,1.33,28.56-6.58,48.26-31.33,63.91s-22.59,16.1-45.4-.75c-20-14.77-27.36-32-25.46-56.41,2-24.59.63-49.46.09-74.21-.5-22.06-2.57-23.39-22.48-12.05-45.28,25.87-90.56,51.7-135,79-16.68,10.27-31.33,12-49.7,5.14-57.45-21.32-56.58-20.74-58.32-81.79-.66-23,4.84-36.5,26.82-47.43,44.24-22,86.63-47.8,129.75-72.06,6.09-3.43,14.49-5.83,14.9-13.66.5-10.05-9.51-11.46-16.43-14.56-24.17-10.93-48.3-21.86-72.72-32.12-12.91-5.42-16.51-14-18.71-28-7.36-47.48,7.08-79.22,55.05-94.33,12.67-4,21.81-6.83,34.19.66,46.81,28.36,94.74,54.89,141.34,83.57,15.65,9.64,27.4,10.88,42.76-.25,22.8-16.55,47.68-30.26,71.06-46.11,17.18-11.63,17.14-17.22-.2-28.89-27.07-18.21-54.51-36-82.53-52.73-12.92-7.7-11.18-13.78-.67-20.24,25.62-15.64,51.82-30.42,77.44-46.11,20.82-12.74,20.86-14.15.42-27.15-24.59-15.64-50.09-29.84-74.17-46.15-14.74-10-26.82-8.52-41.23.38-42.09,26-85.13,50.41-127,76.73-15.81,9.93-29.63,12-46.89,3.93-58.4-27.19-49.92-6.78-44.66-75,1.61-21,10.43-31.42,28.18-39.41,21.73-9.81,42.8-21.19,63.58-32.86,21.19-11.92,21.39-15.48.12-26.65-45.36-23.8-90.72-47.64-137.2-69.12-17.39-8-24.26-17.35-22.93-36.05a436.84,436.84,0,0,0,0-61c-1.08-15.36,5.58-21.65,18.91-26.9,50.82-20,50.74-20.57,100,5.29,40.68,21.36,81.24,43,121.85,64.49,21.69,11.5,26.11,9.15,26.24-15.07.08-24.75.7-49.58-1.33-74.21-1.74-21.19,4.47-36.75,20.41-51,33.61-30.05,21.89-32.24,64.73-5.63,19.16,11.92,25.46,25.62,25,47.39-1.12,53.89.41,107.86.17,161.75-.09,14.65,3.8,24.13,18.08,31.37,30.67,15.61,60.27,33.4,90.11,50.66,13.62,7.87,19.16,4.39,19-11.13-.45-36.21-.78-72.47-.66-108.73.08-23.05,1.41-24,21.48-12.13,28.15,16.56,55.67,34.23,83.65,51.12,8,4.84,16.31,14.45,25.91,9.56s7.53-17,7.61-26.53c.29-28.27-.49-56.58.38-84.85.49-16.26-5.51-25.87-20.53-32.9-47.19-22.1-93.54-46-140.77-68.09-13.74-6.41-21.44-13.86-20-29.76,1-11.38,1.41-23.13,0-34.43-2.9-22.44,8.11-33.49,25.7-46.52,28.48-21.11,50.79-19.75,76.7,2.44,17.34,14.81,37.41,26.57,56.87,38.7,15.23,9.47,20.19,6.91,21.31-11.26,1.2-19.37.5-38.87.5-58.32,0-39.77-.29-79.55,0-119.32.16-25.54,11.3-36.63,37.21-37.54,13.24-.5,26.53-.42,39.82,0,28.51.78,49.25,21.89,49.33,50.28.17,54.8-.16,109.6,0,164.44.12,27.69,2.36,29.14,26.45,16.68,29.8-15.4,59.6-30.88,88.82-47.31,13.66-7.7,25.66-10.39,38.82.54,5.34,4.43,12.05,7.49,18.51,10.26,21.81,9.32,30.95,23.64,30,49.05-.83,23-5.67,36.3-28.31,46.27-54.13,23.89-106.61,51.49-160.17,76.7-12.09,5.67-17.76,12.79-17.55,26.11.45,33.57-.29,67.18.37,100.79.37,18.54,4.34,21.23,20.53,12.66,32.78-17.38,64.85-36,97.14-54.38,6.58-3.77,13.45-12,20.4-7.62s3.65,14.69,3.56,22.48c-.2,33.61-1,67.17-1,100.78,0,23.72,3.39,25.91,24.21,15.81,31-15.07,61.42-31.29,92.71-45.73,15.15-7,20.24-16.77,19.62-33-1.12-30-.33-60.1-.33-90.15C2722.28,4197.15,2722.32,4197.15,2722.32,4197.15Zm-330.41,462.94v0c15,0,30-.92,45,.24,14.52,1.16,22.68-4.34,28.39-17.59,9.39-21.81,20.2-43,30.67-64.35,5-10.19,5.79-20.2.41-30.38-12.37-23.35-25-46.57-37.17-70-5.91-11.39-14.23-15.81-27.48-15.36-29,1-58.19.83-87.25,0-13.86-.37-23.3,3.27-29.67,16.47-11.51,23.72-24.17,46.86-36.72,70-4.71,8.7-4.09,16.39.79,24.84,12.38,21.31,25,42.55,36.09,64.52,8.7,17.18,20.9,24.17,40.07,21.86C2367.07,4658.89,2379.57,4660.09,2391.91,4660.09Z" transform="translate(-104.86 -2038.55)"/><path class="cls-1" d="M2074.91,3025.13" transform="translate(-104.86 -2038.55)"/><path class="cls-1" d="M1451.34,3642.66" transform="translate(-104.86 -2038.55)"/><path class="cls-1" d="M2017,3241.68" transform="translate(-104.86 -2038.55)"/><path class="cls-1" d="M2534.12,2872.16" transform="translate(-104.86 -2038.55)"/><path class="cls-1" d="M730.3,3999.8c22-14.23,2035.06-1481.11,2061.1-1490.59,5-1.82,9.6-4.47,14.48-6.54,12.5-5.17,18.83.34,19.5,12.63.7,13.2.12,26.53.2,39.77.17,35.35-.08,70.69.83,106,.25,10.23-1671.71,1200-1682.43,1202.52-7.32,4.22-19,7.49-16.55,18,2.69,11.3,14.77,7,22.89,7,71.64.37,143.28.17,214.93.33,41.1.09,37.46-3.52,37.46,36.76q.06,896.36,0,1792.73c0,44.9.08,44.7,45,44.61q440.47-.8,881-1.36c29.17,0,58.35,1.07,87.53,1.28,14,.08,22.68,6,13.21,18.83-24.09,32.78-34.15,73.22-59.77,105.13-7.95,9.93-15.69,16.22-28.43,15.52-75.08-4.1-150.21,1.41-225.37-1-68.91-2.24-138-.71-206.94-.75q-301.17-.26-602.38-.54c-33.32,0-33.24,5.51-33.24-32.61q.06-453.46,0-907h-.12V4058.91c0-5.3-.41-10.64.08-15.9,1.78-17.79-7.16-23.09-23.63-22.68-28.27.75-56.62.29-84.93.25q-213.63-.32-427.22-.7c-.87,0-1.78,0-2.65,0-6.79-.67-16.56,2.85-19.33-4.51-2.85-7.54,5.51-9.07,10.64-13Z" transform="translate(-104.86 -2038.55)"/><path class="cls-1" d="M3591.41,4956.23V4592.87c0-32.66,0-32.66,33.81-32.66,39.82,0,79.64,1,119.41-.41,18.09-.66,22.76,5.63,22.64,22.43-.58,76-.41,152.07,0,228.1,0,9.85-5.17,23.63,6.62,28.64,13.33,5.59,24.8-1.45,34.81-12.38,75.33-82,151.44-163.28,226.48-245.52,12.88-14.11,25.38-21.65,45.28-21.19,57.49,1.28,115,.41,172.51.54,6,0,14.49-2.82,17.31,2.4,4.22,7.82-5,12.13-9.52,16.8q-148.32,153.54-296.93,306.74c-2.44,2.52-5,5-7.41,7.61-17.22,18.26-17.47,18.5-1.86,36.59q85.86,99.21,172,198.13,89.54,102.93,179.05,206c3.23,3.73,9.85,7.33,6.42,13-2.82,4.63-9.65,2.81-14.7,2.81-65.47.13-130.91-.16-196.39.33-12.08.09-19.45-5-26.61-13.82q-129.57-159.3-259.84-318c-10.47-12.71-18.42-36.63-39.86-26.87-16.64,7.58-7.12,28.81-7.24,43.63-.79,96.35-.38,192.71-.42,289.1,0,25.54-.12,25.67-26.12,25.71-41.59.08-83.15.16-124.74,0-24.26-.13-24.55-.38-24.59-25.5q-.18-184.34,0-368.65C3591.45,4956.23,3591.45,4956.23,3591.41,4956.23Z" transform="translate(-104.86 -2038.55)"/><path class="cls-1" d="M5021.9,5088q0-119.33,0-238.61c0-26.45.29-26.61,26.61-26.7,39.78-.12,79.6.25,119.37,0,16.31-.12,25.5,5.3,22.68,23.39-.66,4.3-.08,8.85.37,13.2.5,4.92-1.94,11.51,4.6,13.74,6,2.07,9.27-3.44,13-7,33.78-32.45,73.14-51.62,120.86-52.07,58-.54,104.3,21.93,139.11,68.46,14.28,19.08,15.4,19.41,30.21.16,68.67-89.32,211.75-86.63,274.7-22.76,35.35,35.84,53.44,79.92,54.39,128.59,2.32,114.86.95,229.75,1.65,344.65.09,14.4-5.46,17.88-18.66,17.67-42.43-.62-84.93-1-127.31.17-18.13.5-22.48-6.46-22.35-23.14.58-83.93.33-167.91.2-251.89,0-13.25-1.4-26.53-.87-39.73,1.41-35-33.11-73.55-75.78-73.18-38,.33-68.66,28.64-73.47,69.91-1.24,10.47-.83,21.19-.83,31.78q-.06,129.95,0,259.84c0,25.83-.16,25.95-25.95,26q-59.66.12-119.36-.09c-23.8-.08-24-.28-24.05-25.12q-.18-136.52-.12-273.08c0-18.79-2-36.92-12.5-53.27-17.51-27.36-46.44-40.73-77.07-35.18-28.19,5.09-53.35,31.21-58.4,61.67-1.74,10.38-1.9,21.11-1.95,31.7q-.24,132.55-.16,265.14c0,28.14,0,28.19-29.26,28.23-38.91,0-77.81.12-116.72,0-22.6-.13-22.85-.33-22.89-23.76Q5021.76,5207.31,5021.9,5088Z" transform="translate(-104.86 -2038.55)"/><path class="cls-2" d="M6624.36,3427.64q0,210.72,0,421.47c0,25.78-.16,25.91-26.11,26.11-40.69.34-81.38-.12-122,1-14.57.37-21.36-3.07-19.95-18.88.58-6.29,3.69-15.44-3.89-19.2-7.78-3.89-12.17,5.05-17.84,8.61-83.56,52.4-170.31,53.22-253.59,4.88-103.89-60.26-145.23-157.07-132.36-273.87,12.13-110,71.23-189.44,177.77-226.07,72.88-25,144.53-18,209.76,27.19,4.92,3.4,9.35,10.39,15.6,8.2,8.82-3.15,4.59-12.25,4.59-18.54q.38-182.91.13-365.8c0-29.06.08-29.1,28.39-29.14,37.13,0,74.25-.12,111.42,0,27.9,0,28.06.12,28.06,27.4q.06,202.77,0,405.57C6624.32,3413.48,6624.32,3420.56,6624.36,3427.64ZM6215.73,3610c-.42,72.56,51.28,124.54,124.66,125.37,67,.79,123.22-54.39,124.25-122,1-68-55-125.21-123.5-126C6271.15,3486.62,6216.1,3540.47,6215.73,3610Z" transform="translate(-104.86 -2038.55)"/><path class="cls-2" d="M3938.62,3715c117.59-2.06,185.18-36.58,230.83-110.46,6.21-10.06,12-12.83,23.51-6.67,39.69,21.32,79.88,41.68,120.11,61.92,11.84,6,14.36,10.89,6.83,24-85.76,149.33-262.66,230.54-430,193-174.38-39.15-282.32-148.83-318.54-322.67-25.28-121.47,5.1-233.88,84.65-330,95.4-115.27,220.73-162.79,367.74-145.4,98.59,11.67,183,57.2,249.08,133.11a453.69,453.69,0,0,1,48,66.51c7.2,12.13,3.85,16.76-6.79,22.18-40.19,20.37-80.29,40.81-120.07,62-12.37,6.58-18.5,3.52-25.33-8-63.53-107.24-205.08-136.34-307.06-83.74-144.95,74.75-157.65,259-74.17,358.52C3837.13,3688.56,3902.53,3715.92,3938.62,3715Z" transform="translate(-104.86 -2038.55)"/><path class="cls-2" d="M4439.68,3424.7V3003.11c0-29.42.08-29.38,28.56-29.59,39.77-.29,79.59,0,119.36-1.28,17.39-.54,22.56,5.13,22.48,22.76-.75,128.14-.5,256.33-.29,384.47,0,6.24-6,15.56,3.35,18.41,7.33,2.24,11.51-6.78,16.64-11.25,49.5-43.17,106.91-58,170.23-42.88,69.08,16.55,112.79,62.58,136.09,128.59,8.57,24.34,11.55,49.63,11.46,75.54-.28,100.74-.08,201.52-.12,302.26,0,24.75-.08,24.92-24.34,25-38.9.17-77.81.08-116.75,0-27.65-.08-27.82-.2-27.86-26.94-.16-90.15-.45-180.29-.12-270.48.08-24.79-4.51-47.6-22.39-65.73-22.35-22.68-49.55-30.09-80.18-21.23-33.15,9.6-54.38,32.12-62.7,65.36-3.19,12.66-3.1,26.32-3.19,39.52-.29,84.85-.12,169.7-.25,254.54,0,24.67-.16,24.88-24.71,25q-61,.26-122.05-.08c-23-.12-23.18-.42-23.18-23.47Q4439.6,3638.14,4439.68,3424.7Z" transform="translate(-104.86 -2038.55)"/><path class="cls-1" d="M6516.71,5001.26c0,48.59.08,97.18,0,145.77,0,11.55.79,23,3.77,34.15,5.59,21.06,14.86,27.77,40.85,30,24.67,2.07,24.83,2.07,24.92,25.95.12,30.92-1,61.88.33,92.76.83,19.62-8.24,26.65-25.83,29-65.73,8.69-119.82-13.41-163.24-62.17-19.74-22.14-16.56-22.76-37-2.11-70.08,70.65-175.7,87.5-269.49,43.13-99.5-47-160.26-151.9-152.64-266,6.87-102.56,52-182.65,145.07-230.57,78.47-40.44,157.73-39.08,235.25,4.84,3.85,2.15,7.25,5.13,11.14,7.16,10.51,5.54,18.29,2.69,17.59-9.56-1.12-19,8.65-21.53,24.42-21.23,39.77.74,79.55.08,119.36.28,25.12.13,25.42.38,25.5,24.84.16,51.24,0,102.48,0,153.72C6516.67,5001.26,6516.71,5001.26,6516.71,5001.26Zm-285.92,210.25c69.66.21,127.11-56.74,126.66-125.49-.46-68-57.29-123.38-126.2-123.13-69.87.29-124.42,54.59-124.42,124S6161.59,5211.31,6230.79,5211.51Z" transform="translate(-104.86 -2038.55)"/><path class="cls-2" d="M7437.62,3347.8c22.1,0,44.24.75,66.31-.25,15-.7,21.6,5.63,26.69,19.41,37.25,100.95,75.41,201.61,113.24,302.35a41.07,41.07,0,0,0,3,7.33c2.16,3.47,2.61,9.39,8.2,8.9,5.38-.5,5.34-6.17,6.79-10q36.57-97.91,73-195.85c13.86-37.17,28.64-74.05,41.14-111.63,5.13-15.44,12.78-20.86,28.55-20.57,43.34.83,86.67.33,130,.5,22.14.08,22.8,1.15,14.32,22.47q-55,137.64-110.1,275.28c-68.41,171.27-136.46,342.7-205.54,513.72-14,34.73-5.05,32.33-47.14,32.49q-58.35.26-116.72,0c-24.42-.12-25.49-1.2-16.59-23.46,24.87-62.29,50.33-124.34,75.57-186.46,8.65-21.28,15.94-43.25,26.49-63.54,11.8-22.64,8.65-42.54-.7-65.14-65.77-159-130.46-318.45-195.57-477.76-1-2.44-2.52-4.67-3.43-7.16-6.25-17.26-4.47-20.24,13.49-20.44C7391.64,3347.55,7414.65,3347.8,7437.62,3347.8Z" transform="translate(-104.86 -2038.55)"/><path class="cls-2" d="M5672.74,3339.94c65.23-1.74,126.57,12.46,180.34,50.58,80.37,56.95,114.4,137.12,110.34,233.64-6,142.09-104.14,243.24-246.72,258.23-61.92,6.49-121.81,1.36-179.17-23.55-110.06-47.81-172.06-160.06-157.74-279.38,17-141.43,123.38-227.64,255.83-239.35C5647.91,3339,5660.37,3339.94,5672.74,3339.94Zm.71,395.31c74-2.45,124.74-54.89,122.88-127-1.78-70.94-57.69-122.76-130.09-120.56-69.12,2.07-121.8,59.22-118.95,129.05C5550.19,3686.24,5604.74,3737.48,5673.45,3735.25Z" transform="translate(-104.86 -2038.55)"/><path class="cls-2" d="M6780.32,3610.91q0-118,0-236c0-27,.2-27.07,28.1-27.07,38.91,0,77.9.95,116.76-.45,18.75-.71,24.46,5.79,24.92,23.84.25,9.64-7.7,24.37,3.8,28.76,9.9,3.77,16.64-10.39,24.22-17.13,85.55-76.08,224.95-51.33,280.53,49.75,16.93,30.75,27.77,63.4,28.06,98.34.91,108.73.42,217.46,1.12,326.18.08,13.95-4.43,18.51-18.17,18.3-43.33-.62-86.71-.95-130,.16-17.47.46-20.12-6.7-20-21.93.58-90.15,0-180.33.33-270.48.08-27.44-3.85-53.35-24.92-72.85-27.52-25.45-59.93-29.42-93.71-15.52-32.15,13.29-50.61,37.59-50.7,73.68q-.24,115.35-.37,230.7c0,20.32-1.24,40.64-.45,60.88.45,12.46-5.26,15.15-15.81,15.11-46-.17-92-.54-138,.21-16.35.24-15.86-9-15.81-20.45q.3-122,.12-244Z" transform="translate(-104.86 -2038.55)"/><path class="cls-2" d="M5259.31,3123c0,39.78-.25,79.56.2,119.29.09,8.32-5,20.49,4,24.25,10.59,4.43,15.23-9,22-15,9.27-8.11,17.63-17.39,25.82-26.62,6.88-7.74,13-7,20.33-.66,14.65,12.75,29.22,25.66,44.74,37.33,11.55,8.7,11.09,15.36,1.41,25.29-33.9,34.81-66.64,70.74-100.87,105.21-12.75,12.83-18.13,25.91-18,44.33.7,137.83.33,275.69.2,413.52,0,24.92-.16,25.08-23.88,25.17q-59.66.24-119.37,0c-26.65-.13-26.73-.34-26.73-25.91q0-111.32.12-222.68c0-5.29.08-10.59-.12-15.89-.17-4.22.25-9.23-4.93-10.93s-7.9,2.45-10.93,5.59c-11.63,12.09-23.79,23.72-34.89,36.3-8.77,9.93-16,11.75-26,1.32-12.21-12.7-25-25.08-38.95-35.88-13.2-10.26-9.68-17.55,0-27.57,33.86-34.8,66.8-70.56,100.78-105.25,11.26-11.5,15.65-23,15.53-39.73-1-146.69-.5-293.37-.83-440.05,0-15.32,4.34-22.68,21.11-22.35q63.63,1.11,127.31,0c17.59-.33,22.68,6.66,22.26,23.63C5258.65,3038.13,5259.31,3080.55,5259.31,3123Z" transform="translate(-104.86 -2038.55)"/><path class="cls-1" d="M6706.89,5073.11c0-32.7-.49-65.39.25-98.09.33-15.07-5.54-20.45-20.24-19.83-17.63.75-35.34-.08-53.06,0-9.85,0-14.24-4.18-14.15-14.36.25-34.48.16-68.91-.09-103.39-.08-11.88,6.58-15,16.93-14.9,15.94.16,31.87-.83,47.72.25,17.34,1.11,23.3-5.76,23-23-.82-50.37-.41-100.74-.41-151.11,0-27.45.08-27.69,28.39-27.69,40.69,0,81.37,1.24,122,.2,14.82-.37,17.88,4.72,17.75,18-.45,51.24-.16,102.53,0,153.76.13,29.51.29,29.64,29.39,29.76,25.66.13,51.28.46,76.94-.2,14.9-.42,20.33,5.5,20,20.36q-1.11,46.38.09,92.79c.41,14.82-4.64,20.45-19.7,20-28.27-.87-56.58.16-84.89-.5-14.86-.37-22.6,2.77-22.27,20.36,1,54.76-.08,109.6.62,164.36.29,21.44,5.51,41.68,21.94,57.86s36.67,15.11,57,15.27c53.35.46,45.78-5.05,46.15,47.15.17,23,0,45.94,0,68.91,0,10.34-2.48,17.55-14.57,21.6-113.07,38-236.66-24.25-271.26-137.82-8.32-27.28-7.79-55.75-7.45-84.06.2-18.55,0-37.13,0-55.67A.16.16,0,0,0,6706.89,5073.11Z" transform="translate(-104.86 -2038.55)"/><path class="cls-1" d="M4366.67,4899.77q0-209.36,0-418.69c0-40.44.83-33.32,35-33.65,38-.33,76,.58,114-.42,16.1-.41,22,4.72,21.64,21.07-.82,40.6-.24,81.25-.24,121.89q0,365.67-.05,731.35c0,29-.12,29-28.14,29.05q-57,.14-114,0c-28,0-28-.12-28-29.34V4899.69C4366.75,4899.77,4366.71,4899.77,4366.67,4899.77Z" transform="translate(-104.86 -2038.55)"/><path class="cls-1" d="M4696.62,5087.68q0-116.66,0-233.31c0-28.94.13-28.36,28.06-30.3,38.91-2.69,77.73,2.19,116.6.12,15.56-.83,21.89,4.22,21.85,21q-.81,242.63-.08,485.2c0,14.24-3.23,20.66-19,20.36-42.42-.86-84.89-1-127.31.09-17.18.41-20.45-6.46-20.33-21.86C4697,5248.52,4696.62,5168.1,4696.62,5087.68Z" transform="translate(-104.86 -2038.55)"/><path class="cls-1" d="M4782.21,4551.73c46.77,1.16,89.9,32.28,91.06,93.91.95,49.75-45.32,92-95.32,90.81-50.16-1.16-92.71-45.49-91.26-95C4688.22,4590,4729.86,4550.9,4782.21,4551.73Z" transform="translate(-104.86 -2038.55)"/></svg>